<?xml version="1.0" encoding="UTF-8" standalone="no"?>
<!-- Created with Inkscape (http://www.inkscape.org/) -->

<svg
   xmlns:dc="http://purl.org/dc/elements/1.1/"
   xmlns:cc="http://creativecommons.org/ns#"
   xmlns:rdf="http://www.w3.org/1999/02/22-rdf-syntax-ns#"
   xmlns:svg="http://www.w3.org/2000/svg"
   xmlns="http://www.w3.org/2000/svg"
   xmlns:xlink="http://www.w3.org/1999/xlink"
   xmlns:sodipodi="http://sodipodi.sourceforge.net/DTD/sodipodi-0.dtd"
   xmlns:inkscape="http://www.inkscape.org/namespaces/inkscape"
   width="40"
   height="40"
   id="svg2"
   version="1.1"
   inkscape:version="0.48.4 r9939"
   sodipodi:docname="rss.svg">
  <defs
     id="defs4">
    <linearGradient
       id="linearGradient4124">
      <stop
         style="stop-color:#808080;stop-opacity:1;"
         offset="0"
         id="stop4126" />
      <stop
         style="stop-color:#000000;stop-opacity:0;"
         offset="1"
         id="stop4128" />
    </linearGradient>
    <linearGradient
       id="linearGradient4102">
      <stop
         style="stop-color:#ffb61a;stop-opacity:1;"
         offset="0"
         id="stop4104" />
      <stop
         style="stop-color:#ff6601;stop-opacity:1;"
         offset="1"
         id="stop4106" />
    </linearGradient>
    <linearGradient
       inkscape:collect="always"
       id="linearGradient4094">
      <stop
         style="stop-color:#ff6601;stop-opacity:1;"
         offset="0"
         id="stop4096" />
      <stop
         style="stop-color:#ff6601;stop-opacity:0;"
         offset="1"
         id="stop4098" />
    </linearGradient>
    <linearGradient
       inkscape:collect="always"
       xlink:href="#linearGradient4094"
       id="linearGradient4100"
       x1="-107.57806"
       y1="725.73828"
       x2="292.15298"
       y2="725.73828"
       gradientUnits="userSpaceOnUse" />
  </defs>
  <sodipodi:namedview
     id="base"
     pagecolor="#ffffff"
     bordercolor="#666666"
     borderopacity="1.0"
     inkscape:pageopacity="0.0"
     inkscape:pageshadow="2"
     inkscape:zoom="7.919596"
     inkscape:cx="10.819867"
     inkscape:cy="13.430914"
     inkscape:document-units="px"
     inkscape:current-layer="layer1"
     showgrid="false"
     inkscape:window-width="1366"
     inkscape:window-height="721"
     inkscape:window-x="-2"
     inkscape:window-y="-1"
     inkscape:window-maximized="1"
     showborder="true" />
  <metadata
     id="metadata7">
    <rdf:RDF>
      <cc:Work
         rdf:about="">
        <dc:format>image/svg+xml</dc:format>
        <dc:type
           rdf:resource="http://purl.org/dc/dcmitype/StillImage" />
        <dc:title />
      </cc:Work>
    </rdf:RDF>
  </metadata>
  <g
     inkscape:label="Layer 1"
     inkscape:groupmode="layer"
     id="layer1"
     transform="translate(0,-1012.3622)">
    <path
       style="fill:#ff6601;fill-opacity:1;stroke:none"
       d="M 18.964143,1012.3699 C 8.3925797,1012.9057 0,1021.6474 0,1032.3501 c 0,11.0479 8.9340138,20.0121 19.984064,20.0121 11.05005,0 20.015936,-8.9642 20.015936,-20.0121 0,-11.0479 -8.965886,-19.9802 -20.015936,-19.9802 -0.345315,0 -0.678902,-0.017 -1.019921,0 z m -7.553784,8.2215 a 22.059014,22.054793 0 0 1 22.055776,22.0516 l -4.430278,0 a 17.647211,17.643834 0 0 0 -17.625498,-17.654 l 0,-4.3976 z m 0,7.4249 a 14.621975,14.619178 0 0 1 14.597609,14.6267 l -4.270916,0 a 10.336223,10.334246 0 0 0 -10.326693,-10.3247 l 0,-4.302 z m 3.027888,8.5721 c 1.670792,0 3.027888,1.3567 3.027888,3.0272 0,1.6705 -1.357096,3.0274 -3.027888,3.0274 -1.670792,0 -3.027888,-1.3569 -3.027888,-3.0274 0,-1.6705 1.357096,-3.0272 3.027888,-3.0272 z"
       id="path3165"
       inkscape:connector-curvature="0" />
  </g>
</svg>
